<svg xmlns="http://www.w3.org/2000/svg" width="1200" height="140" viewBox="0 0 1200 140" role="img" aria-label="Spider silk divider">
  <path pathLength="1" stroke-dasharray="1" stroke-dashoffset="1" fill="none" stroke="#D62828" stroke-width="2.2" stroke-linecap="round" d="M 0 46 C 240 74, 430 62, 600 54 C 770 62, 960 74, 1200 46"><animate attributeName="stroke-dashoffset" from="1" to="0" dur="0.9s" begin="0.1s" fill="freeze" calcMode="spline" keySplines="0.4 0 0.6 1"/></path>
  <g opacity="0">
    <animate attributeName="opacity" from="0" to="1" dur="0.2s" begin="0.7s" fill="freeze" calcMode="spline" keySplines="0.4 0 0.6 1"/>
    <g>
      <animateTransform attributeName="transform" type="translate" values="0 -55;0 0" dur="0.9s" begin="0.7s" fill="freeze" calcMode="spline" keySplines="0.4 0 0.6 1"/>
      <g>
        <animateTransform attributeName="transform" type="rotate" values="-7 600 54;7 600 54;-7 600 54" dur="4.6s" begin="1.8s" repeatCount="indefinite" calcMode="spline" keySplines="0.4 0 0.6 1;0.4 0 0.6 1"/>
        <line x1="600" y1="54" x2="600" y2="102" stroke="#D62828" stroke-width="1.6"/>
  <g transform="translate(600 104)">
      <g transform="scale(1.0)">
        <g>
<path d="M -7 -9 C -17 -17 -23 -28 -24 -39" transform="scale(1.0)" stroke="#B02633" stroke-width="2.30" fill="none" stroke-linecap="round"/>
      <path d="M -9 -5 C -21 -7 -30 -15 -34 -26" transform="scale(1.0)" stroke="#B02633" stroke-width="2.30" fill="none" stroke-linecap="round"/>
      <path d="M -9 2 C -21 5 -28 14 -30 26" transform="scale(1.0)" stroke="#B02633" stroke-width="2.30" fill="none" stroke-linecap="round"/>
      <path d="M -7 8 C -16 17 -20 28 -20 38" transform="scale(1.0)" stroke="#B02633" stroke-width="2.30" fill="none" stroke-linecap="round"/>
      <path d="M 7 -9 C 17 -17 23 -28 24 -39" transform="scale(1.0)" stroke="#B02633" stroke-width="2.30" fill="none" stroke-linecap="round"/>
      <path d="M 9 -5 C 21 -7 30 -15 34 -26" transform="scale(1.0)" stroke="#B02633" stroke-width="2.30" fill="none" stroke-linecap="round"/>
      <path d="M 9 2 C 21 5 28 14 30 26" transform="scale(1.0)" stroke="#B02633" stroke-width="2.30" fill="none" stroke-linecap="round"/>
      <path d="M 7 8 C 16 17 20 28 20 38" transform="scale(1.0)" stroke="#B02633" stroke-width="2.30" fill="none" stroke-linecap="round"/>
        </g>
        <ellipse cx="0" cy="10" rx="8.5" ry="11" fill="#D62828" stroke="#1A1A1A" stroke-width="2"/>
        <circle cx="0" cy="-6.5" r="5.5" fill="#D62828" stroke="#1A1A1A" stroke-width="2"/>
        <circle cx="-2.2" cy="-8" r="1.5" fill="#F5F5F5"/>
        <circle cx="2.2" cy="-8" r="1.5" fill="#F5F5F5"/>
      </g>
    </g>
      </g>
    </g>
  </g>
</svg>
